#define e5c23f827e344341bdb1ba45ade23bfaaSruzuJLq8NZBpAi_width 16
#define e5c23f827e344341bdb1ba45ade23bfaaSruzuJLq8NZBpAi_height 16
static char e5c23f827e344341bdb1ba45ade23bfaaSruzuJLq8NZBpAi_bits[] = {
  0xF8, 0x1F, 0xFC, 0x3F, 0xFE, 0x7F, 0xFF, 0xFF, 0xFF, 0xFF, 0x0F, 0xF8, 
  0x1F, 0xF8, 0x9F, 0xFC, 0x1F, 0xF8, 0x9F, 0xF8, 0x9F, 0xF9, 0xFF, 0xFF, 
  0xFF, 0xFF, 0xFE, 0x7F, 0xFE, 0x7F, 0xF8, 0x1F, };
